<?xml version="1.0" encoding="UTF-8"?>
<svg version="1.1" xmlns="http://www.w3.org/2000/svg" width="61" height="157">
<path d="M0 0 C0.66 0 1.32 0 2 0 C2.01981934 0.55461914 2.03963867 1.10923828 2.06005859 1.68066406 C2.15557651 4.20423693 2.26514567 6.72701224 2.375 9.25 C2.4059375 10.12269531 2.436875 10.99539063 2.46875 11.89453125 C2.50742187 12.73886719 2.54609375 13.58320313 2.5859375 14.453125 C2.63306885 15.61569824 2.63306885 15.61569824 2.68115234 16.80175781 C3.03581675 19.24693266 3.70387699 20.90294092 5 23 C5.66 23.33 6.32 23.66 7 24 C7 25.65 7 27.3 7 29 C11.455 29.99 11.455 29.99 16 31 C16 31.66 16 32.32 16 33 C16.639375 33.103125 17.27875 33.20625 17.9375 33.3125 C18.618125 33.539375 19.29875 33.76625 20 34 C20.33 34.99 20.66 35.98 21 37 C22.32449827 37.68405158 23.65878464 38.34933604 25 39 C30.46905633 44.75610625 31.6347729 52.33023098 32 60 C31.30412853 67.27065705 28.08997924 74.77607393 23 80 C14.87131252 86.13082995 6.96446904 89.9189772 -3.4375 88.71875 C-8.00884057 87.79212691 -11.914026 86.30490841 -16 84 C-16 83.34 -16 82.68 -16 82 C-16.58523437 81.9278125 -17.17046875 81.855625 -17.7734375 81.78125 C-22.39416492 80.15994213 -24.69608425 75.08553322 -27 71 C-29.58717765 64.31175036 -30.2174329 56.00013666 -28.125 49.125 C-27.75375 48.42375 -27.3825 47.7225 -27 47 C-26.67 46.29875 -26.34 45.5975 -26 44.875 C-25 43 -25 43 -23 40 C-22.34 40 -21.68 40 -21 40 C-20.67 38.68 -20.34 37.36 -20 36 C-18.02 35.505 -18.02 35.505 -16 35 C-16 34.34 -16 33.68 -16 33 C-14.52184338 32.3310968 -13.04244528 31.66493641 -11.5625 31 C-10.73878906 30.62875 -9.91507813 30.2575 -9.06640625 29.875 C-7 29 -7 29 -6 29 C-5.67 27.35 -5.34 25.7 -5 24 C-4.01 24 -3.02 24 -2 24 C-0.79483714 19.10845663 -0.66538566 14.19724878 -0.4375 9.1875 C-0.39431641 8.30384766 -0.35113281 7.42019531 -0.30664062 6.50976562 C-0.20108464 4.34000377 -0.10008929 2.1700209 0 0 Z M0 21 C0 21.99 0 22.98 0 24 C0.99 23.67 1.98 23.34 3 23 C2.67 22.34 2.34 21.68 2 21 C1.34 21 0.68 21 0 21 Z M-13 36 C-13 36.66 -13 37.32 -13 38 C-13.5775 38.0825 -14.155 38.165 -14.75 38.25 C-17.71569306 39.23856435 -19.00683627 40.60820353 -21 43 C-22.18391223 45.37625345 -22.18391223 45.37625345 -23 48 C-23.37125 48.969375 -23.7425 49.93875 -24.125 50.9375 C-25.0332955 54.11653423 -25.07466572 56.71470834 -25 60 C-25.33 60.66 -25.66 61.32 -26 62 C-25.34 62 -24.68 62 -24 62 C-24 63.98 -24 65.96 -24 68 C-23.34 68 -22.68 68 -22 68 C-21.34 69.98 -20.68 71.96 -20 74 C-19.34 74 -18.68 74 -18 74 C-17.896875 74.639375 -17.79375 75.27875 -17.6875 75.9375 C-17.460625 76.618125 -17.23375 77.29875 -17 78 C-16.01 78.33 -15.02 78.66 -14 79 C-13.34 79.99 -12.68 80.98 -12 82 C-4.39075934 84.85346525 3.64011739 86.26467974 11.2421875 82.89453125 C15.88885612 80.77315898 15.88885612 80.77315898 19 77 C19.99 76.67 20.98 76.34 22 76 C22.3721042 74.67696283 22.70630173 73.34262065 23 72 C23.66 71.67 24.32 71.34 25 71 C25.75882452 68.32179581 26.42690476 65.71618248 27 63 C27.21140625 62.21625 27.4228125 61.4325 27.640625 60.625 C28.08902443 57.34973463 27.51675856 54.94126992 26.6875 51.75 C26.42324219 50.69296875 26.15898438 49.6359375 25.88671875 48.546875 C25.27948122 45.84905241 25.27948122 45.84905241 23 45 C22.855625 44.34 22.71125 43.68 22.5625 43 C22.376875 42.34 22.19125 41.68 22 41 C21.01 40.67 20.02 40.34 19 40 C18.34 39.01 17.68 38.02 17 37 C7.13275569 29.95196835 -2.46313697 31.52981569 -13 36 Z M-19 38 C-18 40 -18 40 -18 40 Z M-23 44 C-22 46 -22 46 -22 46 Z M-7 85 C-6 87 -6 87 -6 87 Z " fill="#DD8E34" transform="translate(29,0)"/>
<path d="M0 0 C1.175625 0.7734375 1.175625 0.7734375 2.375 1.5625 C3.24125 2.036875 4.1075 2.51125 5 3 C7.63813861 2.26145768 7.63813861 2.26145768 10 1 C10.99 1 11.98 1 13 1 C13 1.66 13 2.32 13 3 C12.34 3.66 11.68 4.32 11 5 C10.3574765 7.06874034 10.3574765 7.06874034 10 9 C10.66 9.33 11.32 9.66 12 10 C12 8.68 12 7.36 12 6 C12.66 5.67 13.32 5.34 14 5 C14 4.01 14 3.02 14 2 C14.66 2 15.32 2 16 2 C17.35439668 4.70879335 17.06501451 7.00933268 17 10 C19.31 10.33 21.62 10.66 24 11 C24.6875 12.75 24.6875 12.75 25 15 C24.2265625 15.9590625 24.2265625 15.9590625 23.4375 16.9375 C22.963125 17.618125 22.48875 18.29875 22 19 C22.67518454 21.60470331 22.67518454 21.60470331 24 24 C24.495 25.485 24.495 25.485 25 27 C24.401875 26.67 23.80375 26.34 23.1875 26 C20.94613529 24.79212012 20.94613529 24.79212012 18 25 C17.67 24.34 17.34 23.68 17 23 C16.34 23.99 15.68 24.98 15 26 C16.32 26 17.64 26 19 26 C19.495 26.99 19.495 26.99 20 28 C20.99 28 21.98 28 23 28 C23 28.66 23 29.32 23 30 C20.69 30.33 18.38 30.66 16 31 C15.34 33.31 14.68 35.62 14 38 C13.34 36.68 12.68 35.36 12 34 C12 34.99 12 35.98 12 37 C12 37.66 12 38.32 12 39 C7.25 37.125 7.25 37.125 5 36 C2.96855359 36.93446535 0.96466413 37.93224776 -1 39 C-1 38.01 -1 37.02 -1 36 C-0.01 35.505 -0.01 35.505 1 35 C0.505 33.515 0.505 33.515 0 32 C0.66 31.34 1.32 30.68 2 30 C2.33 29.01 2.66 28.02 3 27 C3.66 27 4.32 27 5 27 C4.67 25.68 4.34 24.36 4 23 C1.90217213 25.09782787 1.3490604 26.3799207 0.375 29.125 C0.11460938 29.84945312 -0.14578125 30.57390625 -0.4140625 31.3203125 C-0.70410156 32.15175781 -0.70410156 32.15175781 -1 33 C-1.66 33 -2.32 33 -3 33 C-3 34.32 -3 35.64 -3 37 C-3.66 37 -4.32 37 -5 37 C-5.20625 35.88625 -5.4125 34.7725 -5.625 33.625 C-6.61628301 29.73400805 -6.61628301 29.73400805 -10.125 28.5625 C-11.07375 28.376875 -12.0225 28.19125 -13 28 C-11.68 27.34 -10.36 26.68 -9 26 C-9.33 25.34 -9.66 24.68 -10 24 C-10.99 24.66 -11.98 25.32 -13 26 C-13 23 -13 23 -11.875 20.5 C-11.441875 19.2625 -11.441875 19.2625 -11 18 C-11.66 17.01 -12.32 16.02 -13 15 C-12.67 14.01 -12.34 13.02 -12 12 C-11.01 12.66 -10.02 13.32 -9 14 C-7.989375 14.33 -6.97875 14.66 -5.9375 15 C-3 16 -3 16 -1 18 C-0.01 18 0.98 18 2 18 C1.67 17.34 1.34 16.68 1 16 C-0.66128463 15.64080332 -2.32900023 15.31088368 -4 15 C-6.3125 13.9375 -6.3125 13.9375 -8 13 C-8 12.34 -8 11.68 -8 11 C-9.32 11 -10.64 11 -12 11 C-12 10.34 -12 9.68 -12 9 C-9.36 8.67 -6.72 8.34 -4 8 C-3.67 5.69 -3.34 3.38 -3 1 C-2.01 0.67 -1.02 0.34 0 0 Z M-1 2 C-1.33 3.98 -1.66 5.96 -2 8 C-1.67 7.01 -1.34 6.02 -1 5 C1.0625 4.3125 1.0625 4.3125 3 4 C1.68 3.34 0.36 2.68 -1 2 Z M1 7 C0.67 7.99 0.34 8.98 0 10 C1.32 9.34 2.64 8.68 4 8 C3.01 7.67 2.02 7.34 1 7 Z M12 10 C13 12 13 12 13 12 Z M2 11 C2.57344937 13.86724686 2.8614515 14.8614515 5 17 C5 15.35 5 13.7 5 12 C4.01 11.67 3.02 11.34 2 11 Z M9 11 C8.01 11.495 8.01 11.495 7 12 C7 13.65 7 15.3 7 17 C7.99 16.34 8.98 15.68 10 15 C9.67 13.68 9.34 12.36 9 11 Z M18 12 C18.99 12.495 18.99 12.495 20 13 C20.33 13.99 20.66 14.98 21 16 C21.66 15.67 22.32 15.34 23 15 C22.67 14.01 22.34 13.02 22 12 C20.68 12 19.36 12 18 12 Z M15 14 C15.66 15.32 16.32 16.64 17 18 C17.33 16.68 17.66 15.36 18 14 C17.01 14 16.02 14 15 14 Z M11 16 C10.01 17.485 10.01 17.485 9 19 C10.65 18.67 12.3 18.34 14 18 C14 17.34 14 16.68 14 16 C13.01 16 12.02 16 11 16 Z M-5 17 C-4 19 -4 19 -4 19 Z M19 17 C20 19 20 19 20 19 Z M-1 20 C-1.99 21.485 -1.99 21.485 -3 23 C-1.35 22.67 0.3 22.34 2 22 C1.67 21.34 1.34 20.68 1 20 C0.34 20 -0.32 20 -1 20 Z M9 21 C9.99 22.485 9.99 22.485 11 24 C12.32 23.67 13.64 23.34 15 23 C14.34 22.34 13.68 21.68 13 21 C11.68 21 10.36 21 9 21 Z M-6 22 C-6.33 22.99 -6.66 23.98 -7 25 C-6.01 25 -5.02 25 -4 25 C-4.33 24.01 -4.66 23.02 -5 22 C-5.33 22 -5.66 22 -6 22 Z M7 23 C7.33 24.65 7.66 26.3 8 28 C8.33 26.68 8.66 25.36 9 24 C8.34 23.67 7.68 23.34 7 23 Z M-4 29 C-3 32 -3 32 -3 32 Z M9 29 C9 29.99 9 30.98 9 32 C9.66 32.33 10.32 32.66 11 33 C11 31.68 11 30.36 11 29 C10.34 29 9.68 29 9 29 Z M13 30 C14 33 14 33 14 33 Z " fill="#D37E2B" transform="translate(24,118)"/>
<path d="M0 0 C1.45116211 -0.0309375 1.45116211 -0.0309375 2.93164062 -0.0625 C4.32479492 -0.07023437 4.32479492 -0.07023437 5.74609375 -0.078125 C7.02311157 -0.09214355 7.02311157 -0.09214355 8.32592773 -0.10644531 C10.5625 0.25 10.5625 0.25 12.33862305 1.55371094 C14.35179445 4.34395927 13.99417126 7.44417665 13.9375 10.75 C13.94910156 11.42675781 13.96070312 12.10351562 13.97265625 12.80078125 C13.94352758 17.72352641 13.94352758 17.72352641 12.33642578 19.9440918 C10.02680823 21.64435938 8.63215918 21.62333881 5.78125 21.61328125 C4.85699219 21.61263672 3.93273437 21.61199219 2.98046875 21.61132812 C2.01753906 21.59521484 1.05460937 21.57910156 0.0625 21.5625 C-0.90042969 21.56572266 -1.86335938 21.56894531 -2.85546875 21.57226562 C-10.03673115 21.51717923 -10.03673115 21.51717923 -13.4375 19.25 C-15.33984984 13.19706868 -14.92118124 7.04525622 -12.4375 1.25 C-8.67595432 -0.63077284 -4.13926726 0.02197355 0 0 Z M-2.4375 7.25 C-2.4375 9.56 -2.4375 11.87 -2.4375 14.25 C-0.4575 13.26 1.5225 12.27 3.5625 11.25 C1.51016315 9.0022025 0.55582739 8.2477758 -2.4375 7.25 Z " fill="#FFFFFF" transform="translate(30.4375,47.75)"/>
<path d="M0 0 C0.66 0 1.32 0 2 0 C2.01981934 0.55461914 2.03963867 1.10923828 2.06005859 1.68066406 C2.15557651 4.20423693 2.26514567 6.72701224 2.375 9.25 C2.4059375 10.12269531 2.436875 10.99539063 2.46875 11.89453125 C2.50742187 12.73886719 2.54609375 13.58320313 2.5859375 14.453125 C2.63306885 15.61569824 2.63306885 15.61569824 2.68115234 16.80175781 C3.03581675 19.24693266 3.70387699 20.90294092 5 23 C5.66 23.33 6.32 23.66 7 24 C7.19947089 27.59047601 7.14640647 30.04327869 5 33 C2.35546875 33.5390625 2.35546875 33.5390625 -0.8125 33.625 C-6.82652948 33.81924195 -10.78810459 34.58753814 -15 39 C-15.66 39 -16.32 39 -17 39 C-17.66 40.32 -18.32 41.64 -19 43 C-19.66 43 -20.32 43 -21 43 C-21.185625 44.051875 -21.185625 44.051875 -21.375 45.125 C-22 48 -22 48 -23.0625 50.9375 C-24.15855356 53.98414464 -24.15855356 53.98414464 -24 57.25 C-24 58.1575 -24 59.065 -24 60 C-24.66 60.66 -25.32 61.32 -26 62 C-26.99 62 -27.98 62 -29 62 C-29.36794171 51.47277879 -29.36794171 51.47277879 -27 47 C-26.67 46.29875 -26.34 45.5975 -26 44.875 C-25 43 -25 43 -23 40 C-22.34 40 -21.68 40 -21 40 C-20.67 38.68 -20.34 37.36 -20 36 C-18.02 35.505 -18.02 35.505 -16 35 C-16 34.34 -16 33.68 -16 33 C-14.52184338 32.3310968 -13.04244528 31.66493641 -11.5625 31 C-10.73878906 30.62875 -9.91507813 30.2575 -9.06640625 29.875 C-7 29 -7 29 -6 29 C-5.67 27.35 -5.34 25.7 -5 24 C-4.01 24 -3.02 24 -2 24 C-0.79483714 19.10845663 -0.66538566 14.19724878 -0.4375 9.1875 C-0.39431641 8.30384766 -0.35113281 7.42019531 -0.30664062 6.50976562 C-0.20108464 4.34000377 -0.10008929 2.1700209 0 0 Z M0 21 C0 21.99 0 22.98 0 24 C0.99 23.67 1.98 23.34 3 23 C2.67 22.34 2.34 21.68 2 21 C1.34 21 0.68 21 0 21 Z M-19 38 C-18 40 -18 40 -18 40 Z M-23 44 C-22 46 -22 46 -22 46 Z " fill="#BE6118" transform="translate(29,0)"/>
<path d="M0 0 C0.66 0 1.32 0 2 0 C3.35439668 2.70879335 3.06501451 5.00933268 3 8 C5.31 8.33 7.62 8.66 10 9 C10.6875 10.75 10.6875 10.75 11 13 C10.484375 13.639375 9.96875 14.27875 9.4375 14.9375 C8.963125 15.618125 8.48875 16.29875 8 17 C8.67518454 19.60470331 8.67518454 19.60470331 10 22 C10.33 22.99 10.66 23.98 11 25 C10.401875 24.67 9.80375 24.34 9.1875 24 C6.94613529 22.79212012 6.94613529 22.79212012 4 23 C3.67 22.34 3.34 21.68 3 21 C2.34 21.99 1.68 22.98 1 24 C2.32 24 3.64 24 5 24 C5.33 24.66 5.66 25.32 6 26 C6.99 26 7.98 26 9 26 C9 26.66 9 27.32 9 28 C6.69 28.33 4.38 28.66 2 29 C1.01 32.465 1.01 32.465 0 36 C-0.66 34.68 -1.32 33.36 -2 32 C-2 32.99 -2 33.98 -2 35 C-2 35.66 -2 36.32 -2 37 C-6.875 35.125 -6.875 35.125 -8 34 C-8.14115161 31.32941149 -8.04247107 28.67567762 -8 26 C-7.01 26 -6.02 26 -5 26 C-5.5259375 24.6078125 -5.5259375 24.6078125 -6.0625 23.1875 C-7 20 -7 20 -6 17 C-5.195625 16.87625 -4.39125 16.7525 -3.5625 16.625 C-2.716875 16.41875 -1.87125 16.2125 -1 16 C-0.67 15.34 -0.34 14.68 0 14 C-1.98 14.66 -3.96 15.32 -6 16 C-5.67 13.03 -5.34 10.06 -5 7 C-4.01 7.33 -3.02 7.66 -2 8 C-2 6.68 -2 5.36 -2 4 C-1.34 3.67 -0.68 3.34 0 3 C0 2.01 0 1.02 0 0 Z M-2 8 C-1 10 -1 10 -1 10 Z M4 10 C4.99 10.495 4.99 10.495 6 11 C6.33 11.99 6.66 12.98 7 14 C7.66 13.67 8.32 13.34 9 13 C8.67 12.01 8.34 11.02 8 10 C6.68 10 5.36 10 4 10 Z M1 12 C1.66 13.32 2.32 14.64 3 16 C3.33 14.68 3.66 13.36 4 12 C3.01 12 2.02 12 1 12 Z M5 15 C6 17 6 17 6 17 Z M-5 19 C-4.01 20.485 -4.01 20.485 -3 22 C-1.68 21.67 -0.36 21.34 1 21 C0.34 20.34 -0.32 19.68 -1 19 C-2.32 19 -3.64 19 -5 19 Z M-5 27 C-5 27.99 -5 28.98 -5 30 C-4.34 30.33 -3.68 30.66 -3 31 C-3 29.68 -3 28.36 -3 27 C-3.66 27 -4.32 27 -5 27 Z M-1 28 C0 31 0 31 0 31 Z " fill="#AD5B1B" transform="translate(38,120)"/>
<path d="M0 0 C0 1.98 0 3.96 0 6 C0.66 6 1.32 6 2 6 C2.28875 6.804375 2.5775 7.60875 2.875 8.4375 C3.73262568 11.1326468 3.73262568 11.1326468 6 12 C6.33 12.99 6.66 13.98 7 15 C8.31647119 15.69937532 9.65022151 16.36729133 11 17 C11.33 17.66 11.66 18.32 12 19 C16.97753069 20.80038344 21.58479313 21.28310176 26.86328125 21.4609375 C29 22 29 22 30.29296875 24.0390625 C30.64294922 25.00972656 30.64294922 25.00972656 31 26 C22.72448786 28.40256804 15.38666765 25.75445282 8 22 C8 21.34 8 20.68 8 20 C7.41476562 19.92910156 6.82953125 19.85820313 6.2265625 19.78515625 C1.64011261 18.16782918 -0.69064038 13.05446765 -3 9 C-3.99593313 6.28184188 -4.52166415 3.87001512 -5 1 C-2 0 -2 0 0 0 Z M17 23 C18 25 18 25 18 25 Z " fill="#C56B1F" transform="translate(5,62)"/>
<path d="M0 0 C0.804375 0.433125 0.804375 0.433125 1.625 0.875 C4.05022087 2.10032283 4.05022087 2.10032283 7 2.875 C10.22449211 4.08418454 11.76821072 5.42485853 14 8 C13.01 8.66 12.02 9.32 11 10 C11.165 10.70125 11.33 11.4025 11.5 12.125 C12.02415338 15.13888194 12.07099683 17.94713625 12 21 C11.34 21 10.68 21 10 21 C10 22.32 10 23.64 10 25 C9.34 25 8.68 25 8 25 C7.79375 23.88625 7.5875 22.7725 7.375 21.625 C6.38371699 17.73400805 6.38371699 17.73400805 2.875 16.5625 C1.92625 16.376875 0.9775 16.19125 0 16 C1.32 15.34 2.64 14.68 4 14 C3.67 13.34 3.34 12.68 3 12 C2.01 12.66 1.02 13.32 0 14 C0 11 0 11 1.125 8.5 C1.41375 7.675 1.7025 6.85 2 6 C1.34 5.01 0.68 4.02 0 3 C0 2.01 0 1.02 0 0 Z M8 5 C9 7 9 7 9 7 Z M7 10 C6.67 10.99 6.34 11.98 6 13 C6.99 13 7.98 13 9 13 C8.67 12.01 8.34 11.02 8 10 C7.67 10 7.34 10 7 10 Z M9 17 C10 20 10 20 10 20 Z " fill="#F1A846" transform="translate(11,130)"/>
<path d="M0 0 C1.20912345 3.44015124 0.83833855 5.16460468 -0.6875 8.4375 C-4.457539 16.23231036 -9.94498791 21.66859936 -18.140625 24.82421875 C-19.74266714 25.28334058 -21.3699543 25.65318177 -23 26 C-23.33 24.68 -23.66 23.36 -24 22 C-22.39125 21.319375 -22.39125 21.319375 -20.75 20.625 C-19.49953964 20.08439694 -18.24950932 19.5427976 -17 19 C-16.236875 18.67 -15.47375 18.34 -14.6875 18 C-12.66437397 16.96566415 -12.66437397 16.96566415 -11 14 C-10.01 14 -9.02 14 -8 14 C-7.67 12.35 -7.34 10.7 -7 9 C-5.35 8.67 -3.7 8.34 -2 8 C-2 6.35 -2 4.7 -2 3 C-1.34 3 -0.68 3 0 3 C0 2.01 0 1.02 0 0 Z " fill="#DB8A33" transform="translate(59,62)"/>
<path d="M0 0 C0.33 0 0.66 0 1 0 C1.01981934 0.55461914 1.03963867 1.10923828 1.06005859 1.68066406 C1.15557651 4.20423693 1.26514567 6.72701224 1.375 9.25 C1.4059375 10.12269531 1.436875 10.99539063 1.46875 11.89453125 C1.50742187 12.73886719 1.54609375 13.58320313 1.5859375 14.453125 C1.6173584 15.22817383 1.6487793 16.00322266 1.68115234 16.80175781 C2.03581675 19.24693266 2.70387699 20.90294092 4 23 C4.66 23.33 5.32 23.66 6 24 C6.22057835 27.97041037 5.88343932 29.23312136 4 33 C1.03 33 -1.94 33 -5 33 C-3.85858512 28.43434046 -2.32912063 25.32912063 1 22 C0.67 21.67 0.34 21.34 0 21 C-0.08685603 19.43827255 -0.10702219 17.87270656 -0.09765625 16.30859375 C-0.09443359 15.36435547 -0.09121094 14.42011719 -0.08789062 13.44726562 C-0.07951172 12.45404297 -0.07113281 11.46082031 -0.0625 10.4375 C-0.05798828 9.44041016 -0.05347656 8.44332031 -0.04882812 7.41601562 C-0.03700007 4.94395151 -0.02051849 2.47200482 0 0 Z " fill="#B65712" transform="translate(30,0)"/>
<path d="M0 0 C0.99 0.66 1.98 1.32 3 2 C2.67 2.66 2.34 3.32 2 4 C1.01 4 0.02 4 -1 4 C-0.34 4.33 0.32 4.66 1 5 C0.67 6.65 0.34 8.3 0 10 C1.32 9.67 2.64 9.34 4 9 C3.41196203 12.02419525 2.77321882 15.01758453 2 18 C1.67 17.34 1.34 16.68 1 16 C-0.66128463 15.64080332 -2.32900023 15.31088368 -4 15 C-6.3125 13.9375 -6.3125 13.9375 -8 13 C-8 12.34 -8 11.68 -8 11 C-9.32 11 -10.64 11 -12 11 C-12 10.34 -12 9.68 -12 9 C-9.36 8.67 -6.72 8.34 -4 8 C-3.67 5.69 -3.34 3.38 -3 1 C-2.01 0.67 -1.02 0.34 0 0 Z " fill="#EDA342" transform="translate(24,118)"/>
<path d="M0 0 C0.66 0 1.32 0 2 0 C2.33 5.61 2.66 11.22 3 17 C3.99 17 4.98 17 6 17 C6 18.65 6 20.3 6 22 C2.7 22 -0.6 22 -4 22 C-4 20.35 -4 18.7 -4 17 C-3.01 17 -2.02 17 -1 17 C-0.67 11.39 -0.34 5.78 0 0 Z " fill="#EBA042" transform="translate(29,96)"/>
<path d="M0 0 C0 0.66 0 1.32 0 2 C-0.66 2.66 -1.32 3.32 -2 4 C-3.54526333 6.66128684 -4 7.84915995 -4 11 C-4.66 11 -5.32 11 -6 11 C-5.67 12.98 -5.34 14.96 -5 17 C-5.66 17.33 -6.32 17.66 -7 18 C-7.33 15.69 -7.66 13.38 -8 11 C-8.66 11 -9.32 11 -10 11 C-9.67 10.01 -9.34 9.02 -9 8 C-9.99 7.34 -10.98 6.68 -12 6 C-12 5.34 -12 4.68 -12 4 C-11.34 4 -10.68 4 -10 4 C-9.67 3.01 -9.34 2.02 -9 1 C-8.01 1.33 -7.02 1.66 -6 2 C-3 0 -3 0 0 0 Z " fill="#CD7727" transform="translate(37,119)"/>
<path d="M0 0 C2.00720923 0.28674418 4.0085944 0.61866701 6 1 C6.6875 2.75 6.6875 2.75 7 5 C6.484375 5.639375 5.96875 6.27875 5.4375 6.9375 C4.963125 7.618125 4.48875 8.29875 4 9 C4.67518454 11.60470331 4.67518454 11.60470331 6 14 C6.33 14.99 6.66 15.98 7 17 C6.401875 16.67 5.80375 16.34 5.1875 16 C2.94613529 14.79212012 2.94613529 14.79212012 0 15 C-1.03876383 11.88370851 -1.13361625 9.6405571 -1.125 6.375 C-1.12757812 5.39273438 -1.13015625 4.41046875 -1.1328125 3.3984375 C-1 1 -1 1 0 0 Z M0 2 C0.99 2.495 0.99 2.495 2 3 C2.33 3.99 2.66 4.98 3 6 C3.66 5.67 4.32 5.34 5 5 C4.67 4.01 4.34 3.02 4 2 C2.68 2 1.36 2 0 2 Z M1 7 C2 9 2 9 2 9 Z " fill="#8B4216" transform="translate(42,128)"/>
<path d="M0 0 C0.99 0 1.98 0 3 0 C3 0.66 3 1.32 3 2 C4.32 2 5.64 2 7 2 C7.33 2.66 7.66 3.32 8 4 C8.99 4 9.98 4 11 4 C11 4.66 11 5.32 11 6 C8.69 6.33 6.38 6.66 4 7 C3.34 9.31 2.68 11.62 2 14 C-0.5119293 11.38340697 -0.99048487 10.13559064 -1.25 6.4375 C-1 3 -1 3 0 0 Z M1 6 C2 9 2 9 2 9 Z " fill="#AB591B" transform="translate(36,142)"/>
<path d="M0 0 C1.32 0 2.64 0 4 0 C4 0.66 4 1.32 4 2 C3.01 2.495 3.01 2.495 2 3 C2.66 3.66 3.32 4.32 4 5 C3.67028521 8.29714793 3.3773161 9.6226839 1 12 C1.309375 12.5775 1.61875 13.155 1.9375 13.75 C2.92583364 15.84294184 3.5168613 17.74535275 4 20 C-0.875 18.125 -0.875 18.125 -2 17 C-2.14115161 14.32941149 -2.04247107 11.67567762 -2 9 C-1.01 9 -0.02 9 1 9 C0.649375 8.071875 0.29875 7.14375 -0.0625 6.1875 C-1 3 -1 3 0 0 Z " fill="#C76E21" transform="translate(32,137)"/>
<path d="M0 0 C0.33 0 0.66 0 1 0 C1.08811914 3.33316277 1.14076197 6.66602047 1.1875 10 C1.21263672 10.93457031 1.23777344 11.86914062 1.26367188 12.83203125 C1.34451845 20.53940462 -0.31060319 26.18880588 -4 33 C-5.32 32.34 -6.64 31.68 -8 31 C-7.67 30.34 -7.34 29.68 -7 29 C-6.67 29 -6.34 29 -6 29 C-5.67 27.35 -5.34 25.7 -5 24 C-4.01 24 -3.02 24 -2 24 C-0.79483714 19.10845663 -0.66538566 14.19724878 -0.4375 9.1875 C-0.39431641 8.30384766 -0.35113281 7.42019531 -0.30664062 6.50976562 C-0.20108464 4.34000377 -0.10008929 2.1700209 0 0 Z " fill="#EBA141" transform="translate(29,0)"/>
<path d="M0 0 C0 0.66 0 1.32 0 2 C0.66 2.33 1.32 2.66 2 3 C0 5 0 5 -1.9375 5.4375 C-4.37972594 6.10356162 -5.36177677 7.11604329 -7 9 C-9.475 8.01 -9.475 8.01 -12 7 C-11.67 6.34 -11.34 5.68 -11 5 C-10.01 5 -9.02 5 -8 5 C-8 4.34 -8 3.68 -8 3 C-2.25 0 -2.25 0 0 0 Z " fill="#C87023" transform="translate(21,30)"/>
<path d="M0 0 C0.33 0 0.66 0 1 0 C1.33 5.61 1.66 11.22 2 17 C2.99 17 3.98 17 5 17 C5 18.65 5 20.3 5 22 C3.35 22 1.7 22 0 22 C0 14.74 0 7.48 0 0 Z " fill="#AF6021" transform="translate(30,96)"/>
<path d="M0 0 C0.99 0.33 1.98 0.66 3 1 C4.125 6.75 4.125 6.75 3 9 C0.69 9 -1.62 9 -4 9 C-3.35455571 5.51460083 -1.89865603 2.97180943 0 0 Z " fill="#D17B2A" transform="translate(29,24)"/>
<path d="M0 0 C2.64 0 5.28 0 8 0 C8.66 1.32 9.32 2.64 10 4 C6.26562152 4.87867729 2.83225427 5.08912219 -1 5 C-0.67 3.35 -0.34 1.7 0 0 Z " fill="#C1661D" transform="translate(26,84)"/>
<path d="M0 0 C1.32 0.33 2.64 0.66 4 1 C4.625 4.375 4.625 4.375 5 8 C4.34 8.66 3.68 9.32 3 10 C2.01 10 1.02 10 0 10 C0 6.7 0 3.4 0 0 Z " fill="#CA7324" transform="translate(0,52)"/>
<path d="M0 0 C1.26937991 3.53324217 0.7575638 5.33100318 -0.8125 8.6875 C-1.34810547 9.86892578 -1.34810547 9.86892578 -1.89453125 11.07421875 C-3 13 -3 13 -5 14 C-5.66 12.35 -6.32 10.7 -7 9 C-5.35 8.67 -3.7 8.34 -2 8 C-2 6.35 -2 4.7 -2 3 C-1.34 3 -0.68 3 0 3 C0 2.01 0 1.02 0 0 Z " fill="#CD7626" transform="translate(59,62)"/>
<path d="M0 0 C0 0.66 0 1.32 0 2 C-2.31 2.33 -4.62 2.66 -7 3 C-7.66 5.31 -8.32 7.62 -9 10 C-9.33 10 -9.66 10 -10 10 C-9.67 7.36 -9.34 4.72 -9 2 C-3.375 0 -3.375 0 0 0 Z " fill="#9B4E19" transform="translate(47,146)"/>
<path d="M0 0 C0.99 0.66 1.98 1.32 3 2 C3.1875 4.625 3.1875 4.625 3 7 C2.34 7 1.68 7 1 7 C0.67 7.66 0.34 8.32 0 9 C-0.99 8.01 -1.98 7.02 -3 6 C-1.125 1.125 -1.125 1.125 0 0 Z " fill="#A3541A" transform="translate(39,133)"/>
<path d="M0 0 C0.33 2.31 0.66 4.62 1 7 C0.34 7 -0.32 7 -1 7 C-1 7.66 -1 8.32 -1 9 C-1.66 9 -2.32 9 -3 9 C-3.66 6.36 -4.32 3.72 -5 1 C-2 0 -2 0 0 0 Z " fill="#CC7526" transform="translate(5,62)"/>
<path d="M0 0 C0.66 0 1.32 0 2 0 C3.26264601 4.29299643 2.62950412 6.87831311 1 11 C0.01 11 -0.98 11 -2 11 C-1.85892253 9.54119891 -1.71197585 8.08296449 -1.5625 6.625 C-1.48128906 5.81289062 -1.40007813 5.00078125 -1.31640625 4.1640625 C-1 2 -1 2 0 0 Z " fill="#F0A645" transform="translate(56,59)"/>
<path d="M0 0 C1.32 0 2.64 0 4 0 C4 0.66 4 1.32 4 2 C3.01 2.495 3.01 2.495 2 3 C2.66 3.66 3.32 4.32 4 5 C3.625 7.625 3.625 7.625 3 10 C2.34 10 1.68 10 1 10 C-1.125 3.375 -1.125 3.375 0 0 Z " fill="#C0671E" transform="translate(32,137)"/>
<path d="M0 0 C0.66 0 1.32 0 2 0 C2.36402369 1.43503555 2.71586591 2.87316506 3.0625 4.3125 C3.25972656 5.11300781 3.45695312 5.91351563 3.66015625 6.73828125 C4 9 4 9 3 12 C2.34 12 1.68 12 1 12 C0.67 8.04 0.34 4.08 0 0 Z " fill="#A15219" transform="translate(38,120)"/>
<path d="M0 0 C2.97 0.495 2.97 0.495 6 1 C6 2.32 6 3.64 6 5 C4.35 5 2.7 5 1 5 C0.67 3.35 0.34 1.7 0 0 Z " fill="#D78730" transform="translate(35,29)"/>
<path d="M0 0 C0.66 0 1.32 0 2 0 C2.22036864 3.85645121 1.60355101 6.49223216 0 10 C-0.99 9.34 -1.98 8.68 -3 8 C-2.42655063 5.13275314 -2.1385485 4.1385485 0 2 C0 1.34 0 0.68 0 0 Z " fill="#E29339" transform="translate(25,137)"/>
<path d="M0 0 C0.66 0 1.32 0 2 0 C1.67 2.97 1.34 5.94 1 9 C-0.32 8.34 -1.64 7.68 -3 7 C-2.67 6.34 -2.34 5.68 -2 5 C-1.67 5 -1.34 5 -1 5 C-0.67 3.35 -0.34 1.7 0 0 Z " fill="#F2A946" transform="translate(24,24)"/>
<path d="M0 0 C0.66 0.99 1.32 1.98 2 3 C1.1875 4.9375 1.1875 4.9375 0 7 C-0.99 7.33 -1.98 7.66 -3 8 C-3 7.01 -3 6.02 -3 5 C-2.34 4.67 -1.68 4.34 -1 4 C-1.33 3.01 -1.66 2.02 -2 1 C-1.34 0.67 -0.68 0.34 0 0 Z " fill="#E09038" transform="translate(26,149)"/>
<path d="M0 0 C0.66 0.33 1.32 0.66 2 1 C1 5 1 5 0 9 C-1.5625 7.8125 -1.5625 7.8125 -3 6 C-2.8125 3.375 -2.8125 3.375 -2 1 C-1.34 0.67 -0.68 0.34 0 0 Z " fill="#E19137" transform="translate(26,127)"/>
<path d="M0 0 C2.49505962 2.49505962 2.35948376 3.67328888 2.625 7.125 C2.69976562 8.03507812 2.77453125 8.94515625 2.8515625 9.8828125 C2.92503906 10.93082031 2.92503906 10.93082031 3 12 C2.01 12 1.02 12 0 12 C-0.33 11.01 -0.66 10.02 -1 9 C-0.34 9 0.32 9 1 9 C0.649375 7.88625 0.29875 6.7725 -0.0625 5.625 C-1 2 -1 2 0 0 Z " fill="#BB5F15" transform="translate(58,49)"/>
<path d="M0 0 C3 1 3 1 3.9375 2.8125 C4 5 4 5 2.0625 7.25 C1.381875 7.8275 0.70125 8.405 0 9 C0 6 0 3 0 0 Z " fill="#7B3B15" transform="translate(45,128)"/>
<path d="M0 0 C0.99 0.33 1.98 0.66 3 1 C3 2.98 3 4.96 3 7 C1.02 7.99 1.02 7.99 -1 9 C-0.67 6.03 -0.34 3.06 0 0 Z " fill="#BD651D" transform="translate(33,127)"/>
<path d="M0 0 C0.99 0 1.98 0 3 0 C3 1.65 3 3.3 3 5 C2.01 5 1.02 5 0 5 C0 3.35 0 1.7 0 0 Z " fill="#F2AA47" transform="translate(25,113)"/>
<path d="M0 0 C0.99 0.33 1.98 0.66 3 1 C2.67 2.65 2.34 4.3 2 6 C1.34 6 0.68 6 0 6 C-1 3 -1 3 0 0 Z " fill="#F0A945" transform="translate(47,34)"/>
</svg>
