<?xml version="1.0" encoding="UTF-8"?>
<svg version="1.1" xmlns="http://www.w3.org/2000/svg" width="58" height="157">
<path d="M0 0 C0.66 0 1.32 0 2 0 C3.22517308 5.66642551 3.09228867 11.23708518 3 17 C3.66 17 4.32 17 5 17 C6.125 20.75 6.125 20.75 5 23 C5.680625 23.04125 6.36125 23.0825 7.0625 23.125 C12.3209579 24.69134916 15.77855288 28.30573465 18.9375 32.6875 C20.65617772 38.04573054 21.1003224 43.67416675 19.30859375 49.08984375 C16.62897011 54.21364293 12.64617138 57.49811895 7.6875 60.3125 C1.14243908 61.98681791 -4.37812486 61.55290806 -10.28125 58.19140625 C-15.19742732 54.78360152 -17.72148262 49.72239636 -19 44 C-19.50340146 37.55874955 -17.3629556 33.0284138 -13.62109375 27.88671875 C-11.64021756 25.58126525 -9.82346226 24.14464686 -7 23 C-6.01 23 -5.02 23 -4 23 C-4 21.02 -4 19.04 -4 17 C-3.34 17 -2.68 17 -2 17 C-0.95915798 13.87747393 -0.92977749 11.76534692 -1 8.5 C-1.07022251 5.23465308 -1.04084202 3.12252607 0 0 Z M0 15 C0 15.66 0 16.32 0 17 C0.66 17 1.32 17 2 17 C2 16.34 2 15.68 2 15 C1.34 15 0.68 15 0 15 Z M-11.25 31.375 C-14.11868007 34.73165142 -14.78683644 37.43680056 -15.375 41.75 C-14.69816947 47.61586458 -11.54095852 51.59912862 -7.25 55.5 C-1.84383102 57.99515491 2.75087944 57.8062885 8.3125 55.8125 C12.2448173 53.16047205 14.49898186 50.50305441 16 46 C16.52438572 41.00544092 16.55003096 37.12043344 14.3125 32.5625 C12.01226837 30.01359468 10.05524778 28.52762389 7 27 C6.34 26.67 5.68 26.34 5 26 C-2.03628777 25.65395306 -6.34746249 25.94968005 -11.25 31.375 Z M18 38 C19 40 19 40 19 40 Z M18 43 C19 45 19 45 19 45 Z M-17 45 C-16 47 -16 47 -16 47 Z M-1 59 C3 60 3 60 3 60 Z " fill="#7AAF8A" transform="translate(29,96)"/>
<path d="M0 0 C3.59049221 2.80995042 6.07694908 5.48730662 7 10 C6.66154069 14.71304589 5.92035504 18.03120522 2.625 21.5 C0 23 0 23 -4 24 C-4 21.03 -4 18.06 -4 15 C-3.01 15 -2.02 15 -1 15 C-1 14.01 -1 13.02 -1 12 C-1.99 12 -2.98 12 -4 12 C-4 10.35 -4 8.7 -4 7 C-3.01 7 -2.02 7 -1 7 C-1 6.34 -1 5.68 -1 5 C-3.52363988 5.62533375 -3.52363988 5.62533375 -6 7 C-6.89386164 9.54775306 -6.89386164 9.54775306 -7 12 C-7.99 12 -8.98 12 -10 12 C-10 12.99 -10 13.98 -10 15 C-9.01 15 -8.02 15 -7 15 C-7 17.97 -7 20.94 -7 24 C-11.41299538 22.79645581 -14.08112557 21.56751319 -17 18 C-18.20643566 14.38069302 -18.32268559 11.80768995 -18 8 C-16.17774814 4.35549628 -14.57798075 2.40721371 -11.25 0.0625 C-7.15319149 -1.27684124 -4.09475295 -1.38461749 0 0 Z " fill="#FFFFFF" transform="translate(35,47)"/>
<path d="M0 0 C0.66 0 1.32 0 2 0 C2.36116046 1.4774746 2.71375048 2.95704675 3.0625 4.4375 C3.35833984 5.67306641 3.35833984 5.67306641 3.66015625 6.93359375 C3.77230469 7.61550781 3.88445313 8.29742187 4 9 C3.67 9.33 3.34 9.66 3 10 C2.76712992 11.68183948 2.58735834 13.3712416 2.4375 15.0625 C2.35371094 15.98160156 2.26992188 16.90070312 2.18359375 17.84765625 C2.12300781 18.55792969 2.06242187 19.26820312 2 20 C2.66 20 3.32 20 4 20 C4 21.32 4 22.64 4 24 C5.32 24 6.64 24 8 24 C8.125 29.75 8.125 29.75 7 32 C7.99 31.67 8.98 31.34 10 31 C10.33 31.66 10.66 32.32 11 33 C11.99 32.505 11.99 32.505 13 32 C13.33 32.66 13.66 33.32 14 34 C16.52733235 34.65555119 16.52733235 34.65555119 19 35 C19 35.66 19 36.32 19 37 C19.66 37 20.32 37 21 37 C21 37.99 21 38.98 21 40 C21.66 40 22.32 40 23 40 C23 40.66 23 41.32 23 42 C23.66 42 24.32 42 25 42 C25 42.66 25 43.32 25 44 C25.66 44.66 26.32 45.32 27 46 C26.67 46.33 26.34 46.66 26 47 C26.66 47.66 27.32 48.32 28 49 C30.60364385 55.36446274 30.79355135 61.43980029 28.265625 67.8671875 C27.53308969 69.58795441 26.76885358 71.29515076 26 73 C25.34 73 24.68 73 24 73 C24 73.99 24 74.98 24 76 C23.01 75.67 22.02 75.34 21 75 C23 70 23 70 24.01953125 67.65234375 C26.65230764 60.53021161 26.46479377 53.74738584 23.88671875 46.6796875 C23.10915794 44.81199779 23.10915794 44.81199779 21 44 C20.67 43.01 20.34 42.02 20 41 C19.34 41 18.68 41 18 41 C18 40.34 18 39.68 18 39 C17.34 39 16.68 39 16 39 C16 38.34 16 37.68 16 37 C14.948125 36.814375 14.948125 36.814375 13.875 36.625 C11 36 11 36 8.125 34.9375 C2.15266801 33.1458004 -3.9397289 33.95512567 -10 35 C-10.33 35.66 -10.66 36.32 -11 37 C-11.66 35.68 -12.32 34.36 -13 33 C-10.03 32.01 -7.06 31.02 -4 30 C-4.66 30 -5.32 30 -6 30 C-6 28.02 -6 26.04 -6 24 C-4.68 24 -3.36 24 -2 24 C-0.37901721 19.02307628 -0.98043883 13.79363111 -1.0625 8.62890625 C-1.00981432 5.56984385 -0.72910001 2.95627268 0 0 Z M1 21 C0.67 21.99 0.34 22.98 0 24 C0.66 24 1.32 24 2 24 C1.67 23.01 1.34 22.02 1 21 Z " fill="#74937A" transform="translate(28,0)"/>
<path d="M0 0 C2.1875 0.3125 2.1875 0.3125 4 1 C4.33 2.65 4.66 4.3 5 6 C7.31 6.33 9.62 6.66 12 7 C11.91621094 7.63808594 11.83242188 8.27617187 11.74609375 8.93359375 C11.64425781 9.75988281 11.54242188 10.58617187 11.4375 11.4375 C11.33308594 12.26121094 11.22867188 13.08492187 11.12109375 13.93359375 C11.08113281 14.61550781 11.04117188 15.29742187 11 16 C11.33 16.33 11.66 16.66 12 17 C12.04063832 18.66617115 12.042721 20.33388095 12 22 C9.69 22.33 7.38 22.66 5 23 C4.67 24.65 4.34 26.3 4 28 C2.25 28.6875 2.25 28.6875 0 29 C-0.598125 28.525625 -1.19625 28.05125 -1.8125 27.5625 C-4.87914611 25.37203849 -7.32778639 25.78814152 -11 26 C-11.12375 24.3603125 -11.12375 24.3603125 -11.25 22.6875 C-11.63689209 18.96723336 -11.63689209 18.96723336 -14.0625 17.0625 C-15.0215625 16.5365625 -15.0215625 16.5365625 -16 16 C-15.6875 14.125 -15.6875 14.125 -15 12 C-14.01 11.34 -13.02 10.68 -12 10 C-11.26393501 6.43230448 -11.26393501 6.43230448 -11 3 C-9.1128125 3.0928125 -9.1128125 3.0928125 -7.1875 3.1875 C-3.87839722 3.29558562 -3.87839722 3.29558562 -1.25 1.4375 C-0.8375 0.963125 -0.425 0.48875 0 0 Z M-4 6 C-4.33 7.32 -4.66 8.64 -5 10 C-6.65 10 -8.3 10 -10 10 C-9.01 11.485 -9.01 11.485 -8 13 C-8.34605611 15.28397032 -8.96704519 16.93409037 -10 19 C-8.02 19 -6.04 19 -4 19 C-4 20.32 -4 21.64 -4 23 C-3.01 22.67 -2.02 22.34 -1 22 C-1 21.34 -1 20.68 -1 20 C0.98 20.66 2.96 21.32 5 22 C4.67 20.02 4.34 18.04 4 16 C5.32 15.67 6.64 15.34 8 15 C7.67 14.34 7.34 13.68 7 13 C6.01 13 5.02 13 4 13 C4.33 11.02 4.66 9.04 5 7 C3.02 7.66 1.04 8.32 -1 9 C-1.33 8.01 -1.66 7.02 -2 6 C-2.66 6 -3.32 6 -4 6 Z " fill="#7AAD8A" transform="translate(31,123)"/>
<path d="M0 0 C0.33 0 0.66 0 1 0 C1.04953687 4.19920237 1.08578411 8.39824869 1.10986328 12.59765625 C1.11990427 14.02542078 1.13353981 15.45316483 1.15087891 16.88085938 C1.17521152 18.93624941 1.18650202 20.99136692 1.1953125 23.046875 C1.20578613 24.28276367 1.21625977 25.51865234 1.22705078 26.79199219 C1.01232352 29.82588065 0.73195844 31.52900723 -1 34 C-3.12890625 34.5390625 -3.12890625 34.5390625 -5.5625 34.625 C-7.93592047 34.68524737 -7.93592047 34.68524737 -10 35 C-10.33 35.66 -10.66 36.32 -11 37 C-11.66 35.68 -12.32 34.36 -13 33 C-10.03 32.01 -7.06 31.02 -4 30 C-4.66 30 -5.32 30 -6 30 C-6 28.02 -6 26.04 -6 24 C-4.68 24 -3.36 24 -2 24 C-0.37901721 19.02307628 -0.98043883 13.79363111 -1.0625 8.62890625 C-1.00981432 5.56984385 -0.72910001 2.95627268 0 0 Z " fill="#809F8A" transform="translate(28,0)"/>
<path d="M0 0 C1.32 0.66 2.64 1.32 4 2 C3.67 2.7425 3.34 3.485 3 4.25 C1.60982343 9.46316212 1.47321636 14.63145493 2 20 C2.66 20.99 3.32 21.98 4 23 C4 23.99 4 24.98 4 26 C4.66 26 5.32 26 6 26 C6 26.66 6 27.32 6 28 C6.66 28 7.32 28 8 28 C7.67 28.99 7.34 29.98 7 31 C6.01 31 5.02 31 4 31 C4 30.34 4 29.68 4 29 C3.34 29 2.68 29 2 29 C1.87625 28.21625 1.7525 27.4325 1.625 26.625 C1.20882007 23.85942178 1.20882007 23.85942178 -1 22 C-1.39460023 19.67624308 -1.72230092 17.3406065 -2 15 C-2.226875 14.175 -2.45375 13.35 -2.6875 12.5 C-3.24009747 8.07922027 -1.38286122 4.14858365 0 0 Z " fill="#74937B" transform="translate(3,46)"/>
<path d="M0 0 C0.33 0 0.66 0 1 0 C1.36116046 1.4774746 1.71375048 2.95704675 2.0625 4.4375 C2.25972656 5.26121094 2.45695312 6.08492188 2.66015625 6.93359375 C2.77230469 7.61550781 2.88445313 8.29742187 3 9 C2.67 9.33 2.34 9.66 2 10 C1.76712992 11.68183948 1.58735834 13.3712416 1.4375 15.0625 C1.31181641 16.44115234 1.31181641 16.44115234 1.18359375 17.84765625 C1.12300781 18.55792969 1.06242187 19.26820312 1 20 C1.66 20 2.32 20 3 20 C3 21.32 3 22.64 3 24 C4.32 24 5.64 24 7 24 C7 25.98 7 27.96 7 30 C6.01 30.33 5.02 30.66 4 31 C3.505 32.485 3.505 32.485 3 34 C1.68 34 0.36 34 -1 34 C-0.9278125 33.30519531 -0.855625 32.61039063 -0.78125 31.89453125 C0.18890706 21.26322679 0.09832791 10.66630956 0 0 Z " fill="#6B8A6F" transform="translate(29,0)"/>
<path d="M0 0 C0.33 0.99 0.66 1.98 1 3 C0.525625 3.886875 0.05125 4.77375 -0.4375 5.6875 C-2.40335387 9.85511021 -2.1521193 12.43642088 -2 17 C-2.33 17.66 -2.66 18.32 -3 19 C-2.34 19 -1.68 19 -1 19 C-0.5875 20.134375 -0.175 21.26875 0.25 22.4375 C1.56685398 26.09543384 1.56685398 26.09543384 4.1875 26.9375 C4.785625 26.958125 5.38375 26.97875 6 27 C6 27.99 6 28.98 6 30 C2.17785851 29.12636766 0.39563489 27.58401414 -1.75 24.4375 C-4.62628962 19.40399317 -5.85261307 14.4709213 -4.44921875 8.7578125 C-3.30459572 5.55286802 -1.88703938 2.83055907 0 0 Z " fill="#7FA089" transform="translate(15,124)"/>
<path d="M0 0 C0.99 0.33 1.98 0.66 3 1 C3 1.66 3 2.32 3 3 C2.34 3 1.68 3 1 3 C0.67 3.99 0.34 4.98 0 6 C-2.0625 6.6875 -2.0625 6.6875 -4 7 C-4 7.66 -4 8.32 -4 9 C-6.64 9.66 -9.28 10.32 -12 11 C-11.67 9.68 -11.34 8.36 -11 7 C-8.93359375 5.953125 -8.93359375 5.953125 -6.4375 5.25 C-5.19806641 4.88648437 -5.19806641 4.88648437 -3.93359375 4.515625 C-3.29550781 4.34546875 -2.65742187 4.1753125 -2 4 C-2 3.34 -2 2.68 -2 2 C-1.34 2 -0.68 2 0 2 C0 1.34 0 0.68 0 0 Z " fill="#76947D" transform="translate(47,75)"/>
<path d="M0 0 C0.99 0.33 1.98 0.66 3 1 C3 1.66 3 2.32 3 3 C2.01 3 1.02 3 0 3 C0 3.66 0 4.32 0 5 C-0.66 5 -1.32 5 -2 5 C-2 5.66 -2 6.32 -2 7 C-2.66 7 -3.32 7 -4 7 C-4.66 8.65 -5.32 10.3 -6 12 C-6.99 11.01 -7.98 10.02 -9 9 C-8.34 8.67 -7.68 8.34 -7 8 C-7 7.34 -7 6.68 -7 6 C-6.34 6 -5.68 6 -5 6 C-5 5.34 -5 4.68 -5 4 C-4.34 4 -3.68 4 -3 4 C-2.67 3.01 -2.34 2.02 -2 1 C-1.34 1.33 -0.68 1.66 0 2 C0 1.34 0 0.68 0 0 Z " fill="#75937D" transform="translate(13,35)"/>
<path d="M0 0 C0.33 0 0.66 0 1 0 C1.02692484 2.29160319 1.04636124 4.58329546 1.0625 6.875 C1.07410156 8.15117188 1.08570313 9.42734375 1.09765625 10.7421875 C1 14 1 14 0 16 C-0.66 16 -1.32 16 -2 16 C-2 16.99 -2 17.98 -2 19 C-2.99 18.67 -3.98 18.34 -5 18 C-3 13 -3 13 -1.9375 10.6875 C-0.69520131 7.12624377 -0.38147588 3.75117948 0 0 Z " fill="#7A9882" transform="translate(54,57)"/>
<path d="M0 0 C3.3 0.99 6.6 1.98 10 3 C9.67 4.32 9.34 5.64 9 7 C6.69 6.34 4.38 5.68 2 5 C2 4.34 2 3.68 2 3 C1.01 3 0.02 3 -1 3 C-0.67 2.01 -0.34 1.02 0 0 Z " fill="#76957D" transform="translate(15,80)"/>
<path d="M0 0 C0.33 0 0.66 0 1 0 C1.02893932 3.62498334 1.04677792 7.24993713 1.0625 10.875 C1.07087891 11.90753906 1.07925781 12.94007812 1.08789062 14.00390625 C1.09111328 14.99003906 1.09433594 15.97617188 1.09765625 16.9921875 C1.10289307 17.90339355 1.10812988 18.81459961 1.11352539 19.75341797 C1 22 1 22 0 24 C-0.66 24 -1.32 24 -2 24 C-1.835 23.49339844 -1.67 22.98679687 -1.5 22.46484375 C-0.57695162 17.91450368 -0.98902992 13.25292913 -1.0625 8.62890625 C-1.00981432 5.56984385 -0.72910001 2.95627268 0 0 Z " fill="#84A28F" transform="translate(28,0)"/>
<path d="M0 0 C-0.33 0.99 -0.66 1.98 -1 3 C-2.65 3 -4.3 3 -6 3 C-6.33 3.66 -6.66 4.32 -7 5 C-7.66 3.68 -8.32 2.36 -9 1 C-3.375 -1.125 -3.375 -1.125 0 0 Z " fill="#77957E" transform="translate(24,32)"/>
<path d="M0 0 C1.5 1.25 1.5 1.25 3 3 C3 4.32 3 5.64 3 7 C2.01 7.33 1.02 7.66 0 8 C-0.79953138 4.71303767 -1.09658936 3.28976808 0 0 Z " fill="#78B78B" transform="translate(33,123)"/>
<path d="M0 0 C0.99 0.33 1.98 0.66 3 1 C2.67 2.98 2.34 4.96 2 7 C1.34 7 0.68 7 0 7 C-1.125 2.25 -1.125 2.25 0 0 Z " fill="#77B78A" transform="translate(33,144)"/>
<path d="M0 0 C0.66 0 1.32 0 2 0 C2.33 1.98 2.66 3.96 3 6 C2.01 6.33 1.02 6.66 0 7 C0 4.69 0 2.38 0 0 Z " fill="#7FA18A" transform="translate(20,142)"/>
<path d="M0 0 C1.32 0.66 2.64 1.32 4 2 C3.34 3.32 2.68 4.64 2 6 C1.01 5.67 0.02 5.34 -1 5 C-0.67 3.35 -0.34 1.7 0 0 Z " fill="#74937B" transform="translate(3,46)"/>
<path d="M0 0 C2.375 -0.125 2.375 -0.125 5 0 C5.66 0.66 6.32 1.32 7 2 C6.67 2.99 6.34 3.98 6 5 C4.02 4.34 2.04 3.68 0 3 C0 2.01 0 1.02 0 0 Z " fill="#789781" transform="translate(33,31)"/>
<path d="M0 0 C0.66 0.66 1.32 1.32 2 2 C0.02 2.99 0.02 2.99 -2 4 C-1.34 2.68 -0.68 1.36 0 0 Z " fill="#76947C" transform="translate(11,76)"/>
<path d="M0 0 C0.66 0 1.32 0 2 0 C2 1.32 2 2.64 2 4 C1.34 4 0.68 4 0 4 C0 2.68 0 1.36 0 0 Z " fill="#76947D" transform="translate(32,83)"/>
<path d="M0 0 C0.66 0 1.32 0 2 0 C2 1.32 2 2.64 2 4 C1.34 4 0.68 4 0 4 C0 2.68 0 1.36 0 0 Z " fill="#76947D" transform="translate(29,83)"/>
<path d="M0 0 C0.66 0 1.32 0 2 0 C2 1.32 2 2.64 2 4 C1.34 4 0.68 4 0 4 C0 2.68 0 1.36 0 0 Z " fill="#76947D" transform="translate(26,83)"/>
<path d="M0 0 C0.66 0 1.32 0 2 0 C1.34 1.32 0.68 2.64 0 4 C-0.33 3.01 -0.66 2.02 -1 1 C-0.67 0.67 -0.34 0.34 0 0 Z " fill="#73927C" transform="translate(13,78)"/>
</svg>
