<?xml version="1.0" encoding="UTF-8"?>
<svg version="1.1" xmlns="http://www.w3.org/2000/svg" width="54" height="157">
<path d="M0 0 C1.07411133 -0.0299707 1.07411133 -0.0299707 2.16992188 -0.06054688 C5.49481125 -0.05746542 7.70245023 0.21054919 10.53515625 1.99609375 C12.66308381 5.39751249 12.59389907 7.94981832 12.5625 11.9375 C12.5728125 13.2471875 12.583125 14.556875 12.59375 15.90625 C12.0625 19.4375 12.0625 19.4375 10.5 21.87890625 C7.09856764 24.0538606 4.57160673 23.93418957 0.5625 23.875 C-0.7471875 23.87371094 -2.056875 23.87242188 -3.40625 23.87109375 C-6.9375 23.4375 -6.9375 23.4375 -9.37890625 22.44140625 C-11.86461541 19.24549448 -11.47513736 15.8073246 -11.375 11.9375 C-11.38208984 11.16535156 -11.38917969 10.39320312 -11.39648438 9.59765625 C-11.33297885 3.96032007 -11.33297885 3.96032007 -9.63867188 1.72045898 C-6.77102934 -0.44220771 -3.4459946 -0.03393549 0 0 Z M-3.1875 8.125 C-5.19007621 10.30326328 -5.19007621 10.30326328 -5 13.0625 C-4.11370377 15.62086404 -4.11370377 15.62086404 -1.625 16.9375 C1.06550052 17.70529486 1.06550052 17.70529486 3.375 16.375 C5.26649986 14.54033919 5.26649986 14.54033919 5.5 11.9375 C4.99436544 9.04815968 4.44328969 8.11287052 2.0625 6.4375 C-1.00625 6.1375 -1.00625 6.1375 -3.1875 8.125 Z " fill="#FFFFFF" transform="translate(25.9375,46.5625)"/>
<path d="M0 0 C5.32794395 5.60836205 7.55612019 11.5612019 8.3125 19.125 C7.65270239 27.30649042 4.68664853 34.40640302 -1.01953125 40.34375 C-7.34560711 45.63419608 -15.13332821 47.47870412 -23.25 46.81640625 C-30.32622705 45.62474996 -36.31720737 42.29584169 -40.86328125 36.7109375 C-46.21913571 28.86250161 -46.57536317 22.42549488 -46 13 C-44.55335995 5.74401799 -40.31857481 0.40339448 -34.3125 -3.75 C-22.61382963 -10.51945533 -10.14338871 -8.53399927 0 0 Z M-39.52734375 2.953125 C-43.53273079 8.52029425 -45.75601953 14.82557894 -45.37890625 21.7109375 C-44.05567628 29.70488353 -40.61900816 36.22874555 -34 41 C-27.64495387 44.59941268 -21.25954395 46.15597834 -14 45 C-5.94308907 42.4854227 -0.26924535 38.36076785 4 31 C6.81301991 24.9520072 7.15040373 17.84851556 5.2421875 11.46484375 C1.69486522 3.09930814 -2.87382873 -1.1090156 -11 -5 C-21.33777155 -8.44592385 -32.3081194 -5.03410194 -39.52734375 2.953125 Z " fill="#C93A00" transform="translate(46,39)"/>
<path d="M0 0 C0.66 0 1.32 0 2 0 C2.06058594 0.73605469 2.12117188 1.47210938 2.18359375 2.23046875 C2.26738281 3.20628906 2.35117187 4.18210937 2.4375 5.1875 C2.51871094 6.15042969 2.59992187 7.11335938 2.68359375 8.10546875 C3.21722648 12.98722006 4.38315228 17.36503654 6 22 C6.7425 22.103125 7.485 22.20625 8.25 22.3125 C11.1973519 23.04933797 12.78383074 23.94799142 15 26 C15 26.66 15 27.32 15 28 C5.63293695 29.44108662 -3.63293695 29.44108662 -13 28 C-13 27.34 -13 26.68 -13 26 C-12.34 26 -11.68 26 -11 26 C-11 25.34 -11 24.68 -11 24 C-10.01 24 -9.02 24 -8 24 C-8 23.34 -8 22.68 -8 22 C-6.35 22 -4.7 22 -3 22 C-1.49366302 14.68350611 -0.62216489 7.43950355 0 0 Z " fill="#F2732A" transform="translate(26,96)"/>
<path d="M0 0 C1.64510941 0.00015915 3.29022379 0.00585551 4.93530273 0.01586914 C6.23164894 0.01799156 6.23164894 0.01799156 7.55418396 0.02015686 C10.32578941 0.025773 13.09731528 0.0383282 15.86889648 0.05102539 C17.74324428 0.05603831 19.61759334 0.06060158 21.49194336 0.06469727 C26.09679192 0.07574767 30.70158069 0.09302309 35.30639648 0.11352539 C34.97639648 2.42352539 34.64639648 4.73352539 34.30639648 7.11352539 C22.09639648 7.11352539 9.88639648 7.11352539 -2.69360352 7.11352539 C-3.35360352 5.13352539 -4.01360352 3.15352539 -4.69360352 1.11352539 C-3.69360352 0.11352539 -3.69360352 0.11352539 0 0 Z M6.30639648 2.11352539 C6.30639648 3.10352539 6.30639648 4.09352539 6.30639648 5.11352539 C6.96639648 5.11352539 7.62639648 5.11352539 8.30639648 5.11352539 C7.97639648 4.12352539 7.64639648 3.13352539 7.30639648 2.11352539 C6.97639648 2.11352539 6.64639648 2.11352539 6.30639648 2.11352539 Z M3.30639648 3.11352539 C3.30639648 3.77352539 3.30639648 4.43352539 3.30639648 5.11352539 C3.96639648 5.11352539 4.62639648 5.11352539 5.30639648 5.11352539 C5.30639648 4.45352539 5.30639648 3.79352539 5.30639648 3.11352539 C4.64639648 3.11352539 3.98639648 3.11352539 3.30639648 3.11352539 Z M9.30639648 3.11352539 C9.30639648 3.77352539 9.30639648 4.43352539 9.30639648 5.11352539 C12.60639648 5.11352539 15.90639648 5.11352539 19.30639648 5.11352539 C18.97639648 4.45352539 18.64639648 3.79352539 18.30639648 3.11352539 C14.96145965 2.11908471 12.61684452 2.01004271 9.30639648 3.11352539 Z M19.30639648 3.11352539 C19.63639648 3.77352539 19.96639648 4.43352539 20.30639648 5.11352539 C21.62639648 5.11352539 22.94639648 5.11352539 24.30639648 5.11352539 C24.30639648 4.45352539 24.30639648 3.79352539 24.30639648 3.11352539 C22.65639648 3.11352539 21.00639648 3.11352539 19.30639648 3.11352539 Z M26.30639648 3.11352539 C25.97639648 3.77352539 25.64639648 4.43352539 25.30639648 5.11352539 C27.28639648 4.78352539 29.26639648 4.45352539 31.30639648 4.11352539 C31.30639648 3.78352539 31.30639648 3.45352539 31.30639648 3.11352539 C29.65639648 3.11352539 28.00639648 3.11352539 26.30639648 3.11352539 Z " fill="#F2742D" transform="translate(11.693603515625,134.886474609375)"/>
<path d="M0 0 C1.65 0 3.3 0 5 0 C4.99476318 0.60996826 4.98952637 1.21993652 4.98413086 1.84838867 C4.96326665 4.62808185 4.95030987 7.40775851 4.9375 10.1875 C4.92912109 11.14720703 4.92074219 12.10691406 4.91210938 13.09570312 C4.90888672 14.02705078 4.90566406 14.95839844 4.90234375 15.91796875 C4.89710693 16.77156982 4.89187012 17.6251709 4.88647461 18.50463867 C5.00420677 21.09246747 5.42892956 23.47661953 6 26 C7.32 26 8.64 26 10 26 C10 27.32 10 28.64 10 30 C5.05 30 0.1 30 -5 30 C-4.67 28.68 -4.34 27.36 -4 26 C-3.01 26 -2.02 26 -1 26 C-0.67 24.35 -0.34 22.7 0 21 C0.66 21 1.32 21 2 21 C1.35054056 10.46226334 1.35054056 10.46226334 0 0 Z M2 22 C1.67 23.32 1.34 24.64 1 26 C2.32 25.67 3.64 25.34 5 25 C4.01 24.01 3.02 23.02 2 22 Z " fill="#E44D12" transform="translate(24,0)"/>
<path d="M0 0 C9.24 0 18.48 0 28 0 C27.67 1.32 27.34 2.64 27 4 C25.68 4 24.36 4 23 4 C23 4.66 23 5.32 23 6 C20.93831015 6.19620767 18.87559002 6.38160753 16.8125 6.5625 C15.66394531 6.66691406 14.51539063 6.77132812 13.33203125 6.87890625 C10.31368801 6.98859985 7.91076064 6.74002389 5 6 C5 5.34 5 4.68 5 4 C4.01 4 3.02 4 2 4 C2 3.34 2 2.68 2 2 C1.34 2 0.68 2 0 2 C0 1.34 0 0.68 0 0 Z M12 1 C16 2 16 2 16 2 Z M14 4 C14 4.33 14 4.66 14 5 C15.65 5 17.3 5 19 5 C19 4.67 19 4.34 19 4 C17.35 4 15.7 4 14 4 Z " fill="#F2742C" transform="translate(13,149)"/>
<path d="M0 0 C0.84139757 2.86460547 1.01500321 5.15860156 0.8125 8.125 C0.78081912 14.5456587 2.58306139 20.14993744 6.765625 25.08203125 C13.32719203 31.21735475 19.65971789 33.50052606 28.58984375 33.23828125 C31.93244131 32.90781374 34.83114531 32.10221033 38 31 C38 31.66 38 32.32 38 33 C31.40125521 36.19294103 24.31426578 36.71458272 17.26171875 34.84375 C9.10679857 31.80149998 4.05077993 26.59521237 0 19 C-1.17245774 15.48262679 -1.13266285 12.6424868 -1.125 8.9375 C-1.12757812 7.68839844 -1.13015625 6.43929687 -1.1328125 5.15234375 C-1 2 -1 2 0 0 Z " fill="#FE9F7D" transform="translate(1,50)"/>
<path d="M0 0 C1.29916347 3.46443592 0.74830199 6.32581548 0.05859375 9.90234375 C-0.15495313 12.57244676 -0.15495313 12.57244676 2 17 C-2.95 16.67 -7.9 16.34 -13 16 C-13 15.34 -13 14.68 -13 14 C-12.34 14 -11.68 14 -11 14 C-11 13.34 -11 12.68 -11 12 C-10.01 12 -9.02 12 -8 12 C-8 11.34 -8 10.68 -8 10 C-6.35 10 -4.7 10 -3 10 C-2.87625 9.278125 -2.7525 8.55625 -2.625 7.8125 C-2.0095069 5.04278106 -1.11555626 2.6029646 0 0 Z " fill="#F78144" transform="translate(26,108)"/>
<path d="M0 0 C1.04837036 -0.00143509 1.04837036 -0.00143509 2.11791992 -0.00289917 C3.59391368 -0.00357891 5.06991045 -0.00173895 6.54589844 0.00244141 C8.80410481 0.00779261 11.0621123 0.00248952 13.3203125 -0.00390625 C14.75520877 -0.00324543 16.19010492 -0.00196419 17.625 0 C19.58373047 0.00169189 19.58373047 0.00169189 21.58203125 0.00341797 C24.8125 0.1328125 24.8125 0.1328125 27.8125 1.1328125 C27.8125 1.7928125 27.8125 2.4528125 27.8125 3.1328125 C15.2725 3.1328125 2.7325 3.1328125 -10.1875 3.1328125 C-10.1875 2.4728125 -10.1875 1.8128125 -10.1875 1.1328125 C-6.62442298 -0.05487984 -3.75984676 0.00324765 0 0 Z " fill="#F2752D" transform="translate(18.1875,130.8671875)"/>
<path d="M0 0 C0.66 0 1.32 0 2 0 C4.04792507 8.44769091 2.78965568 15.27705738 -1 23 C-6.0752627 30.38327079 -6.0752627 30.38327079 -10.21875 31.7109375 C-10.8065625 31.80632812 -11.394375 31.90171875 -12 32 C-12 31.34 -12 30.68 -12 30 C-11.0925 29.4225 -10.185 28.845 -9.25 28.25 C-3.94760254 24.57910945 -1.68133837 20.11129945 0 14 C0.24000746 10.34008166 0.24000746 10.34008166 0.125 6.625 C0.10695313 5.37976562 0.08890625 4.13453125 0.0703125 2.8515625 C0.04710937 1.91054688 0.02390625 0.96953125 0 0 Z " fill="#D93D00" transform="translate(51,50)"/>
<path d="M0 0 C2.5 0.125 2.5 0.125 3.5 1.125 C3.625 3.625 3.625 3.625 3.5 6.125 C2.5 7.125 2.5 7.125 0 7.25 C-2.5 7.125 -2.5 7.125 -3.5 6.125 C-3.625 3.625 -3.625 3.625 -3.5 1.125 C-2.5 0.125 -2.5 0.125 0 0 Z " fill="#FFFFFF" transform="translate(26.5,54.875)"/>
<path d="M0 0 C0 0.66 0 1.32 0 2 C-1.4421997 2.93910678 -2.88606046 3.8758019 -4.33984375 4.796875 C-8.23632762 7.62067978 -11.12914057 11.57796863 -13 16 C-13.66 16 -14.32 16 -15 16 C-13.30429643 9.52549545 -10.15147026 5.60305627 -4.8125 1.625 C-2 0 -2 0 0 0 Z " fill="#EA4B0B" transform="translate(16,34)"/>
<path d="M0 0 C0.33 0.66 0.66 1.32 1 2 C3.52733235 2.65555119 3.52733235 2.65555119 6 3 C5.67 4.32 5.34 5.64 5 7 C1.7 6.67 -1.6 6.34 -5 6 C-5 5.34 -5 4.68 -5 4 C-4.34 4 -3.68 4 -3 4 C-3 3.34 -3 2.68 -3 2 C-2.01 2 -1.02 2 0 2 C0 1.34 0 0.68 0 0 Z " fill="#F27429" transform="translate(18,118)"/>
<path d="M0 0 C0.66 0 1.32 0 2 0 C2.19672365 1.72814161 2.38196799 3.45759197 2.5625 5.1875 C2.66691406 6.15042969 2.77132813 7.11335938 2.87890625 8.10546875 C2.99758751 10.94233377 2.67765639 13.25423671 2 16 C-1.09369276 10.43135303 -1.10170004 6.24296691 0 0 Z " fill="#F37934" transform="translate(26,96)"/>
<path d="M0 0 C2.00720923 0.28674418 4.0085944 0.61866701 6 1 C6.33 2.65 6.66 4.3 7 6 C5.02 6.33 3.04 6.66 1 7 C0.34 5.02 -0.32 3.04 -1 1 C-0.67 0.67 -0.34 0.34 0 0 Z " fill="#F47937" transform="translate(8,135)"/>
<path d="M0 0 C0.66 0 1.32 0 2 0 C5 3.46153846 5 3.46153846 5 6 C2.03 6 -0.94 6 -4 6 C-3.67 4.68 -3.34 3.36 -3 2 C-2.01 2 -1.02 2 0 2 C0 1.34 0 0.68 0 0 Z " fill="#FB8E65" transform="translate(23,24)"/>
<path d="M0 0 C3.3 0 6.6 0 10 0 C10 0.99 10 1.98 10 3 C5.545 3.495 5.545 3.495 1 4 C0.67 2.68 0.34 1.36 0 0 Z " fill="#F07126" transform="translate(37,135)"/>
<path d="M0 0 C2.31 0 4.62 0 7 0 C8 3 8 3 7 6 C6.34 6 5.68 6 5 6 C5 5.34 5 4.68 5 4 C4.01 4 3.02 4 2 4 C2 3.34 2 2.68 2 2 C1.34 2 0.68 2 0 2 C0 1.34 0 0.68 0 0 Z " fill="#F27630" transform="translate(13,149)"/>
<path d="M0 0 C1.65 0 3.3 0 5 0 C4.67 1.32 4.34 2.64 4 4 C3.34 4 2.68 4 2 4 C1.67 4.66 1.34 5.32 1 6 C1 5.34 1 4.68 1 4 C0.34 4 -0.32 4 -1 4 C-0.67 2.68 -0.34 1.36 0 0 Z " fill="#F37833" transform="translate(29,118)"/>
<path d="M0 0 C3 2 3 2 3.6875 4.625 C3.8421875 5.800625 3.8421875 5.800625 4 7 C3.01 7 2.02 7 1 7 C0.67 7.66 0.34 8.32 0 9 C0 6.03 0 3.06 0 0 Z " fill="#EB630D" transform="translate(28,111)"/>
<path d="M0 0 C1.6396875 0.0928125 1.6396875 0.0928125 3.3125 0.1875 C3.3125 1.1775 3.3125 2.1675 3.3125 3.1875 C0.0125 3.1875 -3.2875 3.1875 -6.6875 3.1875 C-3.6875 0.1875 -3.6875 0.1875 0 0 Z " fill="#F17229" transform="translate(42.6875,138.8125)"/>
<path d="M0 0 C0 0.99 0 1.98 0 3 C-5.34883721 8 -5.34883721 8 -8 8 C-8 7.34 -8 6.68 -8 6 C-6.25 4.4921875 -6.25 4.4921875 -4 2.875 C-3.2575 2.33617188 -2.515 1.79734375 -1.75 1.2421875 C-1.1725 0.83226563 -0.595 0.42234375 0 0 Z " fill="#F45819" transform="translate(47,74)"/>
<path d="M0 0 C1.65 0 3.3 0 5 0 C5 1.98 5 3.96 5 6 C4.34 5.67 3.68 5.34 3 5 C3.33 4.34 3.66 3.68 4 3 C2.68 3 1.36 3 0 3 C0 2.01 0 1.02 0 0 Z " fill="#F67D39" transform="translate(32,135)"/>
<path d="M0 0 C1.98 0 3.96 0 6 0 C5.67 1.32 5.34 2.64 5 4 C3.68 4 2.36 4 1 4 C0.67 2.68 0.34 1.36 0 0 Z " fill="#F17127" transform="translate(26,135)"/>
</svg>
